<svg width="800" height="800" viewBox="0 0 800 800" fill="none" xmlns="http://www.w3.org/2000/svg">
<path d="M400.5 84.9838C429.377 112.892 458.602 129.234 492.931 138.712C528.466 148.523 569.298 150.926 620.396 151.531C630.23 151.647 637.312 151.735 642.852 152.243C648.342 152.746 651.862 153.63 654.67 155.091L654.671 155.091C660.183 157.957 664.54 162.367 667.34 167.912L667.34 167.912C668.772 170.748 669.613 174.245 670.05 179.65C670.491 185.111 670.495 192.067 670.495 201.74L670.495 387.387C670.495 469.898 625.479 541.584 571.497 597.829C519.256 652.26 459.149 691.669 425.178 711.739L421.974 713.62C414.69 717.867 411.51 719.677 407.479 720.672L406.659 720.861C403.398 721.56 398.481 721.603 395.013 720.992L394.34 720.861C389.895 719.907 386.795 718.15 379.026 713.62L379.027 713.62C345.736 694.195 283.428 654.015 229.502 597.829C175.521 541.584 130.505 469.898 130.505 387.387L130.505 201.74C130.505 192.067 130.509 185.111 130.95 179.65C131.387 174.246 132.228 170.748 133.659 167.912L133.659 167.912C136.46 162.367 140.818 157.957 146.328 155.091C149.137 153.63 152.658 152.746 158.149 152.243C163.689 151.735 170.771 151.647 180.605 151.531C231.703 150.926 272.535 148.523 308.07 138.712C342.399 129.234 371.623 112.892 400.5 84.9838Z" fill="white" stroke="#2563EB" stroke-width="10" stroke-linecap="round" stroke-linejoin="round"/>
<path d="M381.034 656.657C387.209 660.258 390.296 662.059 394.652 662.994C398.035 663.719 402.965 663.719 406.348 662.994C410.704 662.059 413.791 660.258 419.965 656.657C474.29 624.958 623.6 525.386 623.6 388.484L623.6 237.871C623.6 222.31 623.6 214.529 620.605 208.599C617.95 203.341 613.803 199.145 608.577 196.427C602.684 193.362 594.773 193.268 578.946 193.081C496.076 192.101 448.288 185.257 400.5 137.462C352.712 185.257 304.924 192.101 222.053 193.081C206.228 193.268 198.315 193.362 192.422 196.427C187.197 199.145 183.05 203.341 180.395 208.599C177.4 214.529 177.4 222.31 177.4 237.871L177.4 388.484C177.4 525.386 326.708 624.958 381.034 656.657Z" fill="#2563EB"/>
<g filter="url(#filter0_d_2_13)">
<path d="M433.306 400.205C433.306 382.639 418.619 368.397 400.5 368.397C382.383 368.397 367.694 382.639 367.694 400.205C367.694 417.773 382.383 432.014 400.5 432.014C418.619 432.014 433.306 417.773 433.306 400.205Z" fill="#61DAFB"/>
</g>
<g filter="url(#filter1_d_2_13)">
<path fill-rule="evenodd" clip-rule="evenodd" d="M507.044 340.359C513.972 313.064 522.68 262.448 491.982 245.288C461.427 228.202 421.666 260.941 400.67 280.593C379.736 261.137 338.858 228.538 308.186 245.753C277.643 262.896 287.062 312.672 294.143 340.139C265.652 347.985 216.811 364.884 216.811 399.412C216.811 433.841 265.601 452.227 293.923 460.066C286.816 487.684 277.869 536.75 308.451 553.855C339.237 571.066 379.988 539.243 401.178 519.376C422.309 539.144 461.688 571.175 492.249 554.023C522.905 536.816 514.921 486.878 507.839 459.253C535.295 451.397 584.189 433.411 584.189 399.412C584.189 365.216 535.086 348.18 507.044 340.359ZM503.564 444.613C498.914 430.341 492.638 415.165 484.961 399.488C492.289 384.18 498.322 369.2 502.842 355.02C523.399 360.799 568.496 374.006 568.496 399.412C568.496 425.056 525.22 438.388 503.564 444.613ZM484.385 540.853C461.583 553.65 427.712 523.018 412.107 508.462C422.459 497.483 432.805 484.72 442.901 470.548C460.663 469.021 477.441 466.523 492.658 463.112C497.642 482.653 507.287 527.999 484.385 540.853ZM316.292 540.671C293.488 527.922 303.911 484.137 309.14 463.793C324.187 467.021 340.845 469.343 358.648 470.743C368.811 484.61 379.457 497.357 390.184 508.52C376.93 520.951 339.203 553.479 316.292 540.671ZM232.504 399.412C232.504 373.672 277.331 360.56 298.357 354.796C302.955 369.294 308.986 384.453 316.263 399.783C308.891 415.34 302.775 430.739 298.134 445.409C278.086 439.844 232.504 425.167 232.504 399.412ZM316.048 258.922C338.946 246.071 374.474 277.368 389.673 291.454C379.001 302.566 368.454 315.217 358.378 329.005C341.1 330.558 324.56 333.051 309.355 336.392C303.65 314.239 293.176 271.759 316.048 258.922ZM454.129 345.544C465.85 346.978 477.081 348.886 487.626 351.22C484.46 361.059 480.515 371.346 475.868 381.893C469.131 369.5 461.9 357.355 454.129 345.544ZM400.675 302.328C407.914 309.931 415.163 318.422 422.295 327.633C407.829 326.97 393.34 326.967 378.874 327.624C386.012 318.498 393.324 310.02 400.675 302.328ZM325.267 381.882C320.697 371.372 316.787 361.039 313.593 351.06C324.075 348.786 335.254 346.927 346.9 345.516C339.106 357.302 331.887 369.441 325.267 381.882ZM347.234 454.393C335.203 453.092 323.856 451.327 313.377 449.115C316.621 438.961 320.617 428.405 325.285 417.669C331.996 430.239 339.325 442.496 347.234 454.393ZM401.11 497.57C393.672 489.788 386.252 481.18 379.006 471.922C393.554 472.476 408.13 472.477 422.677 471.847C415.523 481.274 408.299 489.894 401.11 497.57ZM476.017 417.123C480.928 427.975 485.067 438.474 488.355 448.457C477.702 450.814 466.202 452.712 454.084 454.121C461.913 442.086 469.26 429.753 476.017 417.123ZM434.143 455.966C411.89 457.507 389.498 457.49 367.238 456.092C354.589 438.177 343.329 419.337 333.609 399.778C343.282 380.259 354.46 361.455 367.049 343.569C389.326 341.937 411.739 341.932 434.016 343.579C446.497 361.464 457.658 380.219 467.555 399.561C457.775 419.07 446.539 437.912 434.143 455.966ZM484.143 258.47C507.047 271.278 496.852 316.768 491.848 336.55C476.607 333.139 460.056 330.602 442.728 329.024C432.632 315.088 422.173 302.415 411.673 291.446C427.067 277.057 461.461 245.786 484.143 258.47Z" fill="#61DAFB"/>
</g>
<defs>
<filter id="filter0_d_2_13" x="363.694" y="368.397" width="73.6113" height="71.6164" filterUnits="userSpaceOnUse" color-interpolation-filters="sRGB">
<feFlood flood-opacity="0" result="BackgroundImageFix"/>
<feColorMatrix in="SourceAlpha" type="matrix" values="0 0 0 0 0 0 0 0 0 0 0 0 0 0 0 0 0 0 127 0" result="hardAlpha"/>
<feOffset dy="4"/>
<feGaussianBlur stdDeviation="2"/>
<feComposite in2="hardAlpha" operator="out"/>
<feColorMatrix type="matrix" values="0 0 0 0 0 0 0 0 0 0 0 0 0 0 0 0 0 0 0.5 0"/>
<feBlend mode="normal" in2="BackgroundImageFix" result="effect1_dropShadow_2_13"/>
<feBlend mode="normal" in="SourceGraphic" in2="effect1_dropShadow_2_13" result="shape"/>
</filter>
<filter id="filter1_d_2_13" x="212.811" y="240.51" width="375.378" height="326.394" filterUnits="userSpaceOnUse" color-interpolation-filters="sRGB">
<feFlood flood-opacity="0" result="BackgroundImageFix"/>
<feColorMatrix in="SourceAlpha" type="matrix" values="0 0 0 0 0 0 0 0 0 0 0 0 0 0 0 0 0 0 127 0" result="hardAlpha"/>
<feOffset dy="4"/>
<feGaussianBlur stdDeviation="2"/>
<feComposite in2="hardAlpha" operator="out"/>
<feColorMatrix type="matrix" values="0 0 0 0 0 0 0 0 0 0 0 0 0 0 0 0 0 0 0.5 0"/>
<feBlend mode="normal" in2="BackgroundImageFix" result="effect1_dropShadow_2_13"/>
<feBlend mode="normal" in="SourceGraphic" in2="effect1_dropShadow_2_13" result="shape"/>
</filter>
</defs>
</svg>
