<svg width="2064" height="826" viewBox="0 0 2064 826" fill="none" xmlns="http://www.w3.org/2000/svg">
<path d="M386.5 97.9838C415.377 125.892 444.602 142.234 478.931 151.712C514.466 161.523 555.298 163.926 606.396 164.531C616.23 164.647 623.312 164.735 628.852 165.243C634.342 165.746 637.862 166.63 640.67 168.091L640.671 168.091C646.183 170.957 650.54 175.367 653.34 180.912L653.34 180.912C654.772 183.748 655.613 187.245 656.05 192.65C656.491 198.111 656.495 205.067 656.495 214.74L656.495 400.387C656.495 482.898 611.479 554.583 557.497 610.828C505.256 665.26 445.149 704.669 411.178 724.739L407.974 726.62C400.69 730.867 397.51 732.677 393.479 733.672L392.659 733.861C389.398 734.56 384.481 734.603 381.013 733.992L380.34 733.861C375.895 732.907 372.795 731.15 365.026 726.62L365.027 726.62C331.736 707.195 269.428 667.015 215.502 610.828C161.521 554.584 116.505 482.898 116.505 400.387L116.505 214.74C116.505 205.067 116.509 198.111 116.95 192.65C117.387 187.245 118.228 183.748 119.659 180.912L119.659 180.911C122.46 175.367 126.818 170.957 132.328 168.091C135.137 166.63 138.658 165.746 144.149 165.243C149.689 164.735 156.771 164.647 166.605 164.531C217.703 163.926 258.535 161.523 294.07 151.712C328.399 142.234 357.623 125.892 386.5 97.9838Z" fill="white" stroke="#2563EB" stroke-width="10" stroke-linecap="round" stroke-linejoin="round"/>
<path d="M367.034 669.657C373.209 673.258 376.296 675.059 380.652 675.994C384.035 676.719 388.965 676.719 392.348 675.994C396.704 675.059 399.791 673.258 405.965 669.657C460.29 637.958 609.6 538.386 609.6 401.484L609.6 250.871C609.6 235.31 609.6 227.529 606.605 221.599C603.95 216.341 599.803 212.145 594.577 209.427C588.684 206.362 580.773 206.269 564.946 206.081C482.076 205.101 434.288 198.257 386.5 150.462C338.712 198.257 290.924 205.101 208.053 206.081C192.228 206.269 184.315 206.362 178.422 209.427C173.197 212.145 169.05 216.341 166.395 221.599C163.4 227.529 163.4 235.31 163.4 250.871L163.4 401.484C163.4 538.386 312.708 637.958 367.034 669.657Z" fill="#2563EB"/>
<g filter="url(#filter0_d_6_52)">
<path d="M419.74 413.205C419.74 395.639 405.054 381.397 386.935 381.397C368.818 381.397 354.129 395.639 354.129 413.205C354.129 430.773 368.818 445.014 386.935 445.014C405.054 445.014 419.74 430.773 419.74 413.205Z" fill="#61DAFB"/>
</g>
<g filter="url(#filter1_d_6_52)">
<path fill-rule="evenodd" clip-rule="evenodd" d="M493.479 353.359C500.407 326.064 509.115 275.448 478.417 258.288C447.862 241.202 408.101 273.941 387.105 293.593C366.171 274.137 325.292 241.538 294.62 258.753C264.078 275.896 273.496 325.673 280.578 353.139C252.086 360.985 203.246 377.884 203.246 412.412C203.246 446.841 252.036 465.227 280.358 473.066C273.251 500.684 264.304 549.75 294.885 566.855C325.672 584.066 366.423 552.243 387.613 532.376C408.744 552.144 448.123 584.175 478.684 567.023C509.34 549.816 501.356 499.878 494.274 472.253C521.729 464.397 570.624 446.411 570.624 412.412C570.624 378.216 521.521 361.18 493.479 353.359ZM489.999 457.613C485.349 443.341 479.073 428.165 471.396 412.488C478.724 397.18 484.756 382.2 489.276 368.02C509.834 373.799 554.931 387.006 554.931 412.412C554.931 438.056 511.655 451.388 489.999 457.613ZM470.819 553.853C448.017 566.65 414.146 536.018 398.541 521.462C408.894 510.483 419.24 497.72 429.336 483.548C447.098 482.021 463.876 479.523 479.093 476.113C484.077 495.653 493.722 540.999 470.819 553.853ZM302.727 553.671C279.923 540.922 290.346 497.138 295.575 476.793C310.622 480.021 327.28 482.343 345.083 483.743C355.246 497.61 365.891 510.357 376.619 521.52C363.365 533.951 325.638 566.479 302.727 553.671ZM218.939 412.412C218.939 386.672 263.766 373.56 284.792 367.796C289.39 382.294 295.42 397.453 302.698 412.783C295.326 428.34 289.209 443.739 284.569 458.409C264.521 452.844 218.939 438.167 218.939 412.412ZM302.483 271.922C325.381 259.071 360.908 290.368 376.108 304.454C365.436 315.566 354.888 328.217 344.812 342.005C327.535 343.558 310.995 346.051 295.789 349.392C290.085 327.239 279.61 284.759 302.483 271.922ZM440.563 358.544C452.285 359.978 463.516 361.886 474.061 364.22C470.895 374.059 466.95 384.346 462.302 394.893C455.566 382.5 448.335 370.355 440.563 358.544ZM387.11 315.328C394.348 322.932 401.598 331.422 408.73 340.633C394.264 339.97 379.775 339.967 365.308 340.624C372.447 331.498 379.759 323.02 387.11 315.328ZM311.702 394.882C307.132 384.372 303.221 374.039 300.028 364.06C310.51 361.786 321.688 359.927 333.334 358.516C325.541 370.302 318.322 382.441 311.702 394.882ZM333.669 467.393C321.638 466.092 310.291 464.327 299.812 462.115C303.056 451.961 307.052 441.405 311.72 430.669C318.431 443.24 325.76 455.496 333.669 467.393ZM387.545 510.57C380.106 502.788 372.687 494.18 365.441 484.922C379.989 485.476 394.565 485.477 409.112 484.848C401.958 494.274 394.734 502.894 387.545 510.57ZM462.452 430.123C467.362 440.975 471.501 451.474 474.79 461.457C464.137 463.814 452.637 465.712 440.519 467.122C448.348 455.086 455.694 442.753 462.452 430.123ZM420.578 468.966C398.325 470.508 375.933 470.49 353.672 469.092C341.024 451.177 329.763 432.337 320.044 412.778C329.717 393.259 340.895 374.455 353.484 356.569C375.76 354.937 398.174 354.932 420.451 356.579C432.932 374.464 444.093 393.219 453.99 412.561C444.21 432.07 432.973 450.912 420.578 468.966ZM470.578 271.47C493.482 284.278 483.287 329.768 478.283 349.55C463.042 346.139 446.49 343.602 429.162 342.025C419.067 328.088 408.608 315.415 398.108 304.447C413.502 290.057 447.896 258.786 470.578 271.47Z" fill="#61DAFB"/>
</g>
<path d="M730.032 303V267.96H741.024C743.232 267.96 745.152 268.392 746.784 269.256C748.416 270.088 749.68 271.272 750.576 272.808C751.504 274.344 751.968 276.152 751.968 278.232C751.968 280.568 751.36 282.6 750.144 284.328C748.96 286.024 747.344 287.224 745.296 287.928L752.448 303H746.544L740.16 288.6H735.216V303H730.032ZM735.216 284.04H741.024C742.752 284.04 744.128 283.528 745.152 282.504C746.176 281.448 746.688 280.056 746.688 278.328C746.688 276.536 746.176 275.128 745.152 274.104C744.128 273.08 742.752 272.568 741.024 272.568H735.216V284.04ZM769.181 303.48C767.037 303.48 765.149 303.064 763.517 302.232C761.917 301.368 760.685 300.168 759.821 298.632C758.957 297.096 758.525 295.304 758.525 293.256V286.344C758.525 284.264 758.957 282.472 759.821 280.968C760.685 279.432 761.917 278.248 763.517 277.416C765.149 276.552 767.037 276.12 769.181 276.12C771.357 276.12 773.245 276.552 774.845 277.416C776.445 278.248 777.677 279.432 778.541 280.968C779.405 282.472 779.837 284.264 779.837 286.344V291.048H763.517V293.256C763.517 295.208 763.997 296.696 764.957 297.72C765.949 298.744 767.373 299.256 769.229 299.256C770.733 299.256 771.949 299 772.877 298.488C773.805 297.944 774.381 297.16 774.605 296.136H779.741C779.357 298.376 778.205 300.168 776.285 301.512C774.365 302.824 771.997 303.48 769.181 303.48ZM774.845 287.928V286.296C774.845 284.376 774.365 282.888 773.405 281.832C772.445 280.776 771.037 280.248 769.181 280.248C767.357 280.248 765.949 280.776 764.957 281.832C763.997 282.888 763.517 284.392 763.517 286.344V287.544L775.229 287.496L774.845 287.928ZM795.323 303.48C792.571 303.48 790.395 302.776 788.795 301.368C787.227 299.928 786.443 297.976 786.443 295.512C786.443 293.016 787.275 291.064 788.939 289.656C790.635 288.216 792.955 287.496 795.898 287.496H803.243V285.048C803.243 283.608 802.795 282.488 801.899 281.688C801.003 280.888 799.739 280.488 798.107 280.488C796.667 280.488 795.467 280.808 794.507 281.448C793.547 282.056 792.987 282.872 792.827 283.896H787.739C788.027 281.528 789.115 279.64 791.003 278.232C792.923 276.824 795.339 276.12 798.251 276.12C801.387 276.12 803.867 276.92 805.691 278.52C807.515 280.088 808.427 282.232 808.427 284.952V303H803.387V298.152H802.523L803.387 297.192C803.387 299.112 802.651 300.648 801.179 301.8C799.707 302.92 797.755 303.48 795.323 303.48ZM796.859 299.496C798.715 299.496 800.235 299.032 801.419 298.104C802.635 297.144 803.243 295.928 803.243 294.456V291H795.995C794.651 291 793.579 291.368 792.779 292.104C792.011 292.84 791.627 293.848 791.627 295.128C791.627 296.472 792.091 297.544 793.019 298.344C793.947 299.112 795.227 299.496 796.859 299.496ZM826.936 303.48C824.76 303.48 822.84 303.08 821.176 302.28C819.544 301.448 818.28 300.264 817.384 298.728C816.52 297.16 816.088 295.336 816.088 293.256V286.344C816.088 284.232 816.52 282.408 817.384 280.872C818.28 279.336 819.544 278.168 821.176 277.368C822.84 276.536 824.76 276.12 826.936 276.12C830.104 276.12 832.648 276.952 834.568 278.616C836.488 280.28 837.496 282.552 837.592 285.432H832.408C832.312 283.928 831.784 282.76 830.824 281.928C829.864 281.096 828.568 280.68 826.936 280.68C825.176 280.68 823.784 281.176 822.76 282.168C821.736 283.128 821.224 284.504 821.224 286.296V293.256C821.224 295.048 821.736 296.44 822.76 297.432C823.784 298.424 825.176 298.92 826.936 298.92C828.568 298.92 829.864 298.504 830.824 297.672C831.784 296.84 832.312 295.672 832.408 294.168H837.592C837.496 297.048 836.488 299.32 834.568 300.984C832.648 302.648 830.104 303.48 826.936 303.48ZM858.405 303C856.005 303 854.133 302.344 852.789 301.032C851.445 299.72 850.773 297.896 850.773 295.56V281.304H843.477V276.6H850.773V269.16H855.957V276.6H866.277V281.304H855.957V295.56C855.957 297.384 856.837 298.296 858.597 298.296H865.797V303H858.405ZM902.576 303V267.96H909.104L919.328 297.096C919.264 296.168 919.184 295.064 919.088 293.784C918.992 292.504 918.912 291.176 918.848 289.8C918.816 288.424 918.8 287.176 918.8 286.056V267.96H923.6V303H917.072L906.896 273.864C906.96 274.696 907.024 275.736 907.088 276.984C907.184 278.232 907.248 279.528 907.28 280.872C907.344 282.216 907.376 283.464 907.376 284.616V303H902.576ZM939.229 303.48C936.477 303.48 934.301 302.776 932.701 301.368C931.133 299.928 930.349 297.976 930.349 295.512C930.349 293.016 931.181 291.064 932.845 289.656C934.541 288.216 936.861 287.496 939.805 287.496H947.149V285.048C947.149 283.608 946.701 282.488 945.805 281.688C944.909 280.888 943.645 280.488 942.013 280.488C940.573 280.488 939.373 280.808 938.413 281.448C937.453 282.056 936.893 282.872 936.733 283.896H931.645C931.933 281.528 933.021 279.64 934.909 278.232C936.829 276.824 939.245 276.12 942.157 276.12C945.293 276.12 947.773 276.92 949.597 278.52C951.421 280.088 952.333 282.232 952.333 284.952V303H947.293V298.152H946.429L947.293 297.192C947.293 299.112 946.557 300.648 945.085 301.8C943.613 302.92 941.661 303.48 939.229 303.48ZM940.765 299.496C942.621 299.496 944.141 299.032 945.325 298.104C946.541 297.144 947.149 295.928 947.149 294.456V291H939.901C938.557 291 937.485 291.368 936.685 292.104C935.917 292.84 935.533 293.848 935.533 295.128C935.533 296.472 935.997 297.544 936.925 298.344C937.853 299.112 939.133 299.496 940.765 299.496ZM973.53 303C971.13 303 969.258 302.344 967.914 301.032C966.57 299.72 965.898 297.896 965.898 295.56V281.304H958.602V276.6H965.898V269.16H971.082V276.6H981.402V281.304H971.082V295.56C971.082 297.384 971.962 298.296 973.722 298.296H980.922V303H973.53ZM988.919 303V298.296H998.183V281.304H990.119V276.6H1003.22V298.296H1011.72V303H988.919ZM1000.2 272.04C999.079 272.04 998.183 271.752 997.511 271.176C996.839 270.568 996.503 269.768 996.503 268.776C996.503 267.752 996.839 266.952 997.511 266.376C998.183 265.768 999.079 265.464 1000.2 265.464C1001.32 265.464 1002.22 265.768 1002.89 266.376C1003.56 266.952 1003.9 267.752 1003.9 268.776C1003.9 269.768 1003.56 270.568 1002.89 271.176C1002.22 271.752 1001.32 272.04 1000.2 272.04ZM1024.8 303L1016.07 276.6H1021.35L1026.77 293.496C1027.12 294.488 1027.43 295.496 1027.68 296.52C1027.97 297.512 1028.18 298.296 1028.31 298.872C1028.47 298.296 1028.68 297.512 1028.93 296.52C1029.22 295.496 1029.51 294.488 1029.8 293.496L1035.12 276.6H1040.36L1031.62 303H1024.8ZM1056.99 303.48C1054.85 303.48 1052.96 303.064 1051.33 302.232C1049.73 301.368 1048.5 300.168 1047.63 298.632C1046.77 297.096 1046.34 295.304 1046.34 293.256V286.344C1046.34 284.264 1046.77 282.472 1047.63 280.968C1048.5 279.432 1049.73 278.248 1051.33 277.416C1052.96 276.552 1054.85 276.12 1056.99 276.12C1059.17 276.12 1061.06 276.552 1062.66 277.416C1064.26 278.248 1065.49 279.432 1066.35 280.968C1067.22 282.472 1067.65 284.264 1067.65 286.344V291.048H1051.33V293.256C1051.33 295.208 1051.81 296.696 1052.77 297.72C1053.76 298.744 1055.19 299.256 1057.04 299.256C1058.55 299.256 1059.76 299 1060.69 298.488C1061.62 297.944 1062.19 297.16 1062.42 296.136H1067.55C1067.17 298.376 1066.02 300.168 1064.1 301.512C1062.18 302.824 1059.81 303.48 1056.99 303.48ZM1062.66 287.928V286.296C1062.66 284.376 1062.18 282.888 1061.22 281.832C1060.26 280.776 1058.85 280.248 1056.99 280.248C1055.17 280.248 1053.76 280.776 1052.77 281.832C1051.81 282.888 1051.33 284.392 1051.33 286.344V287.544L1063.04 287.496L1062.66 287.928Z" fill="#53C1DE"/>
<path d="M764.912 428.28C759.109 428.28 754.032 427.213 749.68 425.08C745.413 422.861 742.085 419.704 739.696 415.608C737.392 411.427 736.24 406.563 736.24 401.016V359.544C736.24 353.912 737.392 349.048 739.696 344.952C742.085 340.856 745.413 337.741 749.68 335.608C754.032 333.389 759.109 332.28 764.912 332.28C770.715 332.28 775.749 333.389 780.016 335.608C784.283 337.827 787.568 340.984 789.872 345.08C792.261 349.091 793.456 353.912 793.456 359.544H779.632C779.632 354.68 778.352 350.968 775.792 348.408C773.232 345.848 769.605 344.568 764.912 344.568C760.219 344.568 756.549 345.848 753.904 348.408C751.344 350.968 750.064 354.637 750.064 359.416V401.016C750.064 405.795 751.344 409.507 753.904 412.152C756.549 414.797 760.219 416.12 764.912 416.12C769.605 416.12 773.232 414.797 775.792 412.152C778.352 409.507 779.632 405.795 779.632 401.016V390.52H762.224V378.36H793.456V401.016C793.456 406.563 792.261 411.384 789.872 415.48C787.568 419.576 784.283 422.733 780.016 424.952C775.749 427.171 770.715 428.28 764.912 428.28ZM851.262 427C846.91 427 843.113 426.147 839.87 424.44C836.627 422.648 834.067 420.131 832.19 416.888C830.398 413.645 829.502 409.891 829.502 405.624V346.104H806.462V333.56H843.326V405.624C843.326 408.355 844.094 410.531 845.63 412.152C847.166 413.688 849.257 414.456 851.902 414.456H873.662V427H851.262ZM917.9 428.152C912.097 428.152 907.063 427.043 902.796 424.824C898.529 422.605 895.244 419.448 892.94 415.352C890.636 411.256 889.484 406.435 889.484 400.888V382.712C889.484 377.08 890.636 372.259 892.94 368.248C895.244 364.152 898.529 360.995 902.796 358.776C907.063 356.557 912.097 355.448 917.9 355.448C923.703 355.448 928.737 356.557 933.004 358.776C937.271 360.995 940.556 364.152 942.86 368.248C945.164 372.259 946.316 377.08 946.316 382.712V400.888C946.316 406.435 945.164 411.256 942.86 415.352C940.556 419.448 937.271 422.605 933.004 424.824C928.737 427.043 923.703 428.152 917.9 428.152ZM917.9 415.992C922.593 415.992 926.22 414.712 928.78 412.152C931.34 409.507 932.62 405.752 932.62 400.888V382.712C932.62 377.763 931.34 374.008 928.78 371.448C926.22 368.888 922.593 367.608 917.9 367.608C913.292 367.608 909.665 368.888 907.02 371.448C904.46 374.008 903.18 377.763 903.18 382.712V400.888C903.18 405.752 904.46 409.507 907.02 412.152C909.665 414.712 913.292 415.992 917.9 415.992ZM999.642 428.28C993.839 428.28 989.231 426.701 985.818 423.544C982.405 420.301 980.698 415.907 980.698 410.36L983.642 413.56H980.698V427H967.002V333.56H980.826V353.656L980.442 370.04H983.642L980.698 373.24C980.698 367.693 982.405 363.341 985.818 360.184C989.317 356.941 993.925 355.32 999.642 355.32C1006.72 355.32 1012.4 357.709 1016.67 362.488C1020.93 367.267 1023.07 373.752 1023.07 381.944V401.784C1023.07 409.891 1020.93 416.333 1016.67 421.112C1012.4 425.891 1006.72 428.28 999.642 428.28ZM994.906 416.248C999.429 416.248 1002.97 414.968 1005.53 412.408C1008.09 409.763 1009.37 405.965 1009.37 401.016V382.584C1009.37 377.635 1008.09 373.88 1005.53 371.32C1002.97 368.675 999.429 367.352 994.906 367.352C990.554 367.352 987.098 368.717 984.538 371.448C982.063 374.093 980.826 377.805 980.826 382.584V401.016C980.826 405.795 982.063 409.549 984.538 412.28C987.098 414.925 990.554 416.248 994.906 416.248ZM1064.36 428.28C1057.02 428.28 1051.22 426.403 1046.95 422.648C1042.77 418.808 1040.68 413.603 1040.68 407.032C1040.68 400.376 1042.9 395.171 1047.34 391.416C1051.86 387.576 1058.05 385.656 1065.9 385.656H1085.48V379.128C1085.48 375.288 1084.29 372.301 1081.9 370.168C1079.51 368.035 1076.14 366.968 1071.78 366.968C1067.94 366.968 1064.74 367.821 1062.18 369.528C1059.62 371.149 1058.13 373.325 1057.7 376.056H1044.14C1044.9 369.741 1047.81 364.707 1052.84 360.952C1057.96 357.197 1064.4 355.32 1072.17 355.32C1080.53 355.32 1087.14 357.453 1092.01 361.72C1096.87 365.901 1099.3 371.619 1099.3 378.872V427H1085.86V414.072H1083.56L1085.86 411.512C1085.86 416.632 1083.9 420.728 1079.98 423.8C1076.05 426.787 1070.85 428.28 1064.36 428.28ZM1068.46 417.656C1073.41 417.656 1077.46 416.419 1080.62 413.944C1083.86 411.384 1085.48 408.141 1085.48 404.216V395H1066.15C1062.57 395 1059.71 395.981 1057.58 397.944C1055.53 399.907 1054.5 402.595 1054.5 406.008C1054.5 409.592 1055.74 412.451 1058.22 414.584C1060.69 416.632 1064.1 417.656 1068.46 417.656ZM1158.26 427C1153.91 427 1150.11 426.147 1146.87 424.44C1143.63 422.648 1141.07 420.131 1139.19 416.888C1137.4 413.645 1136.5 409.891 1136.5 405.624V346.104H1113.46V333.56H1150.33V405.624C1150.33 408.355 1151.09 410.531 1152.63 412.152C1154.17 413.688 1156.26 414.456 1158.9 414.456H1180.66V427H1158.26ZM736.88 555V461.56H750.704V500.216H778.096V461.56H791.92V555H778.096V513.016H750.704V555H736.88ZM834.11 556.28C826.771 556.28 820.969 554.403 816.702 550.648C812.521 546.808 810.43 541.603 810.43 535.032C810.43 528.376 812.649 523.171 817.086 519.416C821.609 515.576 827.795 513.656 835.646 513.656H855.23V507.128C855.23 503.288 854.035 500.301 851.646 498.168C849.257 496.035 845.886 494.968 841.534 494.968C837.694 494.968 834.494 495.821 831.934 497.528C829.374 499.149 827.881 501.325 827.454 504.056H813.886C814.654 497.741 817.555 492.707 822.59 488.952C827.71 485.197 834.153 483.32 841.918 483.32C850.281 483.32 856.894 485.453 861.758 489.72C866.622 493.901 869.054 499.619 869.054 506.872V555H855.614V542.072H853.31L855.614 539.512C855.614 544.632 853.651 548.728 849.726 551.8C845.801 554.787 840.595 556.28 834.11 556.28ZM838.206 545.656C843.155 545.656 847.209 544.419 850.366 541.944C853.609 539.384 855.23 536.141 855.23 532.216V523H835.902C832.318 523 829.459 523.981 827.326 525.944C825.278 527.907 824.254 530.595 824.254 534.008C824.254 537.592 825.491 540.451 827.966 542.584C830.441 544.632 833.854 545.656 838.206 545.656ZM890.252 555V484.6H903.948V498.04H907.276L903.948 501.24C903.948 495.608 905.612 491.213 908.94 488.056C912.268 484.899 916.876 483.32 922.764 483.32C929.761 483.32 935.351 485.581 939.532 490.104C943.713 494.541 945.804 500.557 945.804 508.152V555H931.98V509.688C931.98 505.08 930.743 501.539 928.268 499.064C925.793 496.589 922.423 495.352 918.156 495.352C913.804 495.352 910.348 496.675 907.788 499.32C905.313 501.88 904.076 505.635 904.076 510.584V555H890.252ZM989.658 556.28C982.575 556.28 976.901 553.891 972.634 549.112C968.367 544.333 966.234 537.891 966.234 529.784V509.944C966.234 501.752 968.367 495.267 972.634 490.488C976.901 485.709 982.575 483.32 989.658 483.32C995.461 483.32 1000.07 484.941 1003.48 488.184C1006.9 491.341 1008.6 495.693 1008.6 501.24L1005.66 498.04H1008.86L1008.47 481.656V461.56H1022.3V555H1008.6V541.56H1005.66L1008.6 538.36C1008.6 543.907 1006.9 548.301 1003.48 551.544C1000.07 554.701 995.461 556.28 989.658 556.28ZM994.394 544.248C998.746 544.248 1002.16 542.925 1004.63 540.28C1007.19 537.549 1008.47 533.795 1008.47 529.016V510.584C1008.47 505.805 1007.19 502.093 1004.63 499.448C1002.16 496.717 998.746 495.352 994.394 495.352C989.871 495.352 986.33 496.675 983.77 499.32C981.21 501.88 979.93 505.635 979.93 510.584V529.016C979.93 533.965 981.21 537.763 983.77 540.408C986.33 542.968 989.871 544.248 994.394 544.248ZM1081.51 555C1077.16 555 1073.36 554.147 1070.12 552.44C1066.88 550.648 1064.32 548.131 1062.44 544.888C1060.65 541.645 1059.75 537.891 1059.75 533.624V474.104H1036.71V461.56H1073.58V533.624C1073.58 536.355 1074.34 538.531 1075.88 540.152C1077.42 541.688 1079.51 542.456 1082.15 542.456H1103.91V555H1081.51ZM1148.15 556.28C1142.43 556.28 1137.4 555.171 1133.05 552.952C1128.78 550.648 1125.49 547.448 1123.19 543.352C1120.89 539.256 1119.73 534.477 1119.73 529.016V510.584C1119.73 505.037 1120.89 500.259 1123.19 496.248C1125.49 492.152 1128.78 488.995 1133.05 486.776C1137.4 484.472 1142.43 483.32 1148.15 483.32C1153.95 483.32 1158.99 484.472 1163.25 486.776C1167.52 488.995 1170.81 492.152 1173.11 496.248C1175.41 500.259 1176.57 505.037 1176.57 510.584V523.128H1133.05V529.016C1133.05 534.221 1134.33 538.189 1136.89 540.92C1139.53 543.651 1143.33 545.016 1148.28 545.016C1152.29 545.016 1155.53 544.333 1158.01 542.968C1160.48 541.517 1162.02 539.427 1162.61 536.696H1176.31C1175.29 542.669 1172.21 547.448 1167.09 551.032C1161.97 554.531 1155.66 556.28 1148.15 556.28ZM1163.25 514.808V510.456C1163.25 505.336 1161.97 501.368 1159.41 498.552C1156.85 495.736 1153.1 494.328 1148.15 494.328C1143.29 494.328 1139.53 495.736 1136.89 498.552C1134.33 501.368 1133.05 505.379 1133.05 510.584V513.784L1164.28 513.656L1163.25 514.808ZM1199.56 555V484.6H1212.87V498.04H1216.2L1211.97 506.36C1211.97 498.765 1213.64 493.048 1216.96 489.208C1220.29 485.283 1225.24 483.32 1231.81 483.32C1239.32 483.32 1245.25 485.667 1249.6 490.36C1254.04 494.968 1256.26 501.325 1256.26 509.432V514.168H1242.05V510.584C1242.05 505.549 1240.77 501.709 1238.21 499.064C1235.74 496.333 1232.24 494.968 1227.72 494.968C1223.19 494.968 1219.65 496.333 1217.09 499.064C1214.62 501.795 1213.38 505.635 1213.38 510.584V555H1199.56Z" fill="white"/>
<path d="M1275.28 427V333.56H1330.19V345.848H1288.85V372.344H1325.71V384.504H1288.85V414.712H1330.19V427H1275.28ZM1345.5 427L1370.21 390.648L1347.04 356.6H1362.91L1375.33 376.056C1375.93 377.08 1376.52 378.189 1377.12 379.384C1377.72 380.493 1378.19 381.432 1378.53 382.2C1378.78 381.432 1379.21 380.493 1379.81 379.384C1380.41 378.189 1381 377.08 1381.6 376.056L1394.02 356.6H1409.89L1386.72 390.776L1411.3 427H1395.42L1381.73 405.88C1381.13 404.856 1380.53 403.704 1379.94 402.424C1379.34 401.144 1378.87 400.12 1378.53 399.352C1378.19 400.12 1377.67 401.144 1376.99 402.424C1376.39 403.704 1375.75 404.856 1375.07 405.88L1361.25 427H1345.5ZM1455.66 428.28C1449.86 428.28 1444.74 427.213 1440.3 425.08C1435.95 422.861 1432.58 419.704 1430.19 415.608C1427.89 411.427 1426.73 406.563 1426.73 401.016V382.584C1426.73 376.952 1427.89 372.088 1430.19 367.992C1432.58 363.896 1435.95 360.781 1440.3 358.648C1444.74 356.429 1449.86 355.32 1455.66 355.32C1464.11 355.32 1470.89 357.539 1476.01 361.976C1481.13 366.413 1483.82 372.472 1484.08 380.152H1470.25C1470 376.141 1468.59 373.027 1466.03 370.808C1463.47 368.589 1460.01 367.48 1455.66 367.48C1450.97 367.48 1447.26 368.803 1444.53 371.448C1441.8 374.008 1440.43 377.677 1440.43 382.456V401.016C1440.43 405.795 1441.8 409.507 1444.53 412.152C1447.26 414.797 1450.97 416.12 1455.66 416.12C1460.01 416.12 1463.47 415.011 1466.03 412.792C1468.59 410.573 1470 407.459 1470.25 403.448H1484.08C1483.82 411.128 1481.13 417.187 1476.01 421.624C1470.89 426.061 1464.11 428.28 1455.66 428.28ZM1531.9 428.28C1526.18 428.28 1521.15 427.171 1516.8 424.952C1512.53 422.648 1509.24 419.448 1506.94 415.352C1504.64 411.256 1503.48 406.477 1503.48 401.016V382.584C1503.48 377.037 1504.64 372.259 1506.94 368.248C1509.24 364.152 1512.53 360.995 1516.8 358.776C1521.15 356.472 1526.18 355.32 1531.9 355.32C1537.7 355.32 1542.74 356.472 1547 358.776C1551.27 360.995 1554.56 364.152 1556.86 368.248C1559.16 372.259 1560.32 377.037 1560.32 382.584V395.128H1516.8V401.016C1516.8 406.221 1518.08 410.189 1520.64 412.92C1523.28 415.651 1527.08 417.016 1532.03 417.016C1536.04 417.016 1539.28 416.333 1541.76 414.968C1544.23 413.517 1545.77 411.427 1546.36 408.696H1560.06C1559.04 414.669 1555.96 419.448 1550.84 423.032C1545.72 426.531 1539.41 428.28 1531.9 428.28ZM1547 386.808V382.456C1547 377.336 1545.72 373.368 1543.16 370.552C1540.6 367.736 1536.85 366.328 1531.9 366.328C1527.04 366.328 1523.28 367.736 1520.64 370.552C1518.08 373.368 1516.8 377.379 1516.8 382.584V385.784L1548.03 385.656L1547 386.808ZM1581 450.04V356.6H1594.7V370.04H1597.64L1594.7 373.24C1594.7 367.693 1596.4 363.341 1599.82 360.184C1603.32 356.941 1607.97 355.32 1613.77 355.32C1620.85 355.32 1626.48 357.709 1630.67 362.488C1634.93 367.181 1637.07 373.624 1637.07 381.816V401.656C1637.07 407.117 1636.08 411.853 1634.12 415.864C1632.24 419.789 1629.56 422.861 1626.06 425.08C1622.64 427.213 1618.55 428.28 1613.77 428.28C1608.05 428.28 1603.44 426.701 1599.95 423.544C1596.45 420.301 1594.7 415.907 1594.7 410.36L1597.64 413.56H1594.44L1594.83 429.944V450.04H1581ZM1609.03 416.248C1613.56 416.248 1617.06 414.968 1619.53 412.408C1622.09 409.763 1623.37 405.965 1623.37 401.016V382.584C1623.37 377.635 1622.09 373.88 1619.53 371.32C1617.06 368.675 1613.56 367.352 1609.03 367.352C1604.68 367.352 1601.23 368.717 1598.67 371.448C1596.11 374.093 1594.83 377.805 1594.83 382.584V401.016C1594.83 405.795 1596.11 409.549 1598.67 412.28C1601.23 414.925 1604.68 416.248 1609.03 416.248ZM1693.08 427C1686.68 427 1681.69 425.251 1678.1 421.752C1674.52 418.253 1672.73 413.389 1672.73 407.16V369.144H1653.27V356.6H1672.73V336.76H1686.55V356.6H1714.07V369.144H1686.55V407.16C1686.55 412.024 1688.9 414.456 1693.59 414.456H1712.79V427H1693.08ZM1734.12 427V414.456H1758.82V369.144H1737.32V356.6H1772.26V414.456H1794.92V427H1734.12ZM1764.2 344.44C1761.21 344.44 1758.82 343.672 1757.03 342.136C1755.24 340.515 1754.34 338.381 1754.34 335.736C1754.34 333.005 1755.24 330.872 1757.03 329.336C1758.82 327.715 1761.21 326.904 1764.2 326.904C1767.18 326.904 1769.57 327.715 1771.37 329.336C1773.16 330.872 1774.05 333.005 1774.05 335.736C1774.05 338.381 1773.16 340.515 1771.37 342.136C1769.57 343.672 1767.18 344.44 1764.2 344.44ZM1838.9 428.152C1833.1 428.152 1828.06 427.043 1823.8 424.824C1819.53 422.605 1816.24 419.448 1813.94 415.352C1811.64 411.256 1810.48 406.435 1810.48 400.888V382.712C1810.48 377.08 1811.64 372.259 1813.94 368.248C1816.24 364.152 1819.53 360.995 1823.8 358.776C1828.06 356.557 1833.1 355.448 1838.9 355.448C1844.7 355.448 1849.74 356.557 1854 358.776C1858.27 360.995 1861.56 364.152 1863.86 368.248C1866.16 372.259 1867.32 377.08 1867.32 382.712V400.888C1867.32 406.435 1866.16 411.256 1863.86 415.352C1861.56 419.448 1858.27 422.605 1854 424.824C1849.74 427.043 1844.7 428.152 1838.9 428.152ZM1838.9 415.992C1843.59 415.992 1847.22 414.712 1849.78 412.152C1852.34 409.507 1853.62 405.752 1853.62 400.888V382.712C1853.62 377.763 1852.34 374.008 1849.78 371.448C1847.22 368.888 1843.59 367.608 1838.9 367.608C1834.29 367.608 1830.67 368.888 1828.02 371.448C1825.46 374.008 1824.18 377.763 1824.18 382.712V400.888C1824.18 405.752 1825.46 409.507 1828.02 412.152C1830.67 414.712 1834.29 415.992 1838.9 415.992ZM1888 427V356.6H1901.7V370.04H1905.03L1901.7 373.24C1901.7 367.608 1903.36 363.213 1906.69 360.056C1910.02 356.899 1914.63 355.32 1920.51 355.32C1927.51 355.32 1933.1 357.581 1937.28 362.104C1941.46 366.541 1943.55 372.557 1943.55 380.152V427H1929.73V381.688C1929.73 377.08 1928.49 373.539 1926.02 371.064C1923.54 368.589 1920.17 367.352 1915.91 367.352C1911.55 367.352 1908.1 368.675 1905.54 371.32C1903.06 373.88 1901.83 377.635 1901.83 382.584V427H1888Z" fill="#2563EB"/>
<defs>
<filter id="filter0_d_6_52" x="350.129" y="381.397" width="73.6113" height="71.6165" filterUnits="userSpaceOnUse" color-interpolation-filters="sRGB">
<feFlood flood-opacity="0" result="BackgroundImageFix"/>
<feColorMatrix in="SourceAlpha" type="matrix" values="0 0 0 0 0 0 0 0 0 0 0 0 0 0 0 0 0 0 127 0" result="hardAlpha"/>
<feOffset dy="4"/>
<feGaussianBlur stdDeviation="2"/>
<feComposite in2="hardAlpha" operator="out"/>
<feColorMatrix type="matrix" values="0 0 0 0 0 0 0 0 0 0 0 0 0 0 0 0 0 0 0.5 0"/>
<feBlend mode="normal" in2="BackgroundImageFix" result="effect1_dropShadow_6_52"/>
<feBlend mode="normal" in="SourceGraphic" in2="effect1_dropShadow_6_52" result="shape"/>
</filter>
<filter id="filter1_d_6_52" x="199.246" y="253.51" width="375.378" height="326.394" filterUnits="userSpaceOnUse" color-interpolation-filters="sRGB">
<feFlood flood-opacity="0" result="BackgroundImageFix"/>
<feColorMatrix in="SourceAlpha" type="matrix" values="0 0 0 0 0 0 0 0 0 0 0 0 0 0 0 0 0 0 127 0" result="hardAlpha"/>
<feOffset dy="4"/>
<feGaussianBlur stdDeviation="2"/>
<feComposite in2="hardAlpha" operator="out"/>
<feColorMatrix type="matrix" values="0 0 0 0 0 0 0 0 0 0 0 0 0 0 0 0 0 0 0.5 0"/>
<feBlend mode="normal" in2="BackgroundImageFix" result="effect1_dropShadow_6_52"/>
<feBlend mode="normal" in="SourceGraphic" in2="effect1_dropShadow_6_52" result="shape"/>
</filter>
</defs>
</svg>
